<svg xmlns="http://www.w3.org/2000/svg" version="1.1" xmlns:xlink="http://www.w3.org/1999/xlink" xmlns:svgjs="http://svgjs.com/svgjs" width="1440" height="250" preserveAspectRatio="none" viewBox="0 0 1440 250"><g mask="url(&quot;#SvgjsMask1009&quot;)" fill="none"><path d="M11 250L261 0L502.5 0L252.5 250z" fill="url(#SvgjsLinearGradient1010)"></path><path d="M252.60000000000002 250L502.6 0L726.1 0L476.1 250z" fill="url(#SvgjsLinearGradient1010)"></path><path d="M490.20000000000005 250L740.2 0L1092.7 0L842.7 250z" fill="url(#SvgjsLinearGradient1010)"></path><path d="M750.8000000000001 250L1000.8000000000001 0L1350.3000000000002 0L1100.3000000000002 250z" fill="url(#SvgjsLinearGradient1010)"></path><path d="M1398 250L1148 0L837.5 0L1087.5 250z" fill="url(#SvgjsLinearGradient1011)"></path><path d="M1158.4 250L908.4000000000001 0L774.9000000000001 0L1024.9 250z" fill="url(#SvgjsLinearGradient1011)"></path><path d="M942.8 250L692.8 0L655.3 0L905.3 250z" fill="url(#SvgjsLinearGradient1011)"></path><path d="M680.1999999999999 250L430.19999999999993 0L133.19999999999993 0L383.19999999999993 250z" fill="url(#SvgjsLinearGradient1011)"></path><path d="M1295.5512565846193 250L1440 105.55125658461921L1440 250z" fill="url(#SvgjsLinearGradient1010)"></path><path d="M0 250L144.4487434153808 250L 0 105.55125658461921z" fill="url(#SvgjsLinearGradient1011)"></path></g><defs><mask id="SvgjsMask1009"><rect width="1440" height="250" fill="#ffffff"></rect></mask><linearGradient x1="0%" y1="100%" x2="100%" y2="0%" id="SvgjsLinearGradient1010"><stop stop-color="rgba(107, 134, 191, 0.2)" offset="0"></stop><stop stop-opacity="0" stop-color="rgba(107, 134, 191, 0.2)" offset="0.66"></stop></linearGradient><linearGradient x1="100%" y1="100%" x2="0%" y2="0%" id="SvgjsLinearGradient1011"><stop stop-color="rgba(107, 134, 191, 0.2)" offset="0"></stop><stop stop-opacity="0" stop-color="rgba(107, 134, 191, 0.2)" offset="0.66"></stop></linearGradient></defs></svg>